<svg width="32" height="32" viewBox="0 0 32 32" fill="none" xmlns="http://www.w3.org/2000/svg">
<circle opacity="0.93" cx="16" cy="16" r="16" fill="white"/>
<path d="M10.4324 18.086L9.73625 20.6849L7.19176 20.7387C6.43133 19.3283 6 17.7146 6 15.9998C6 14.3415 6.40328 12.7778 7.11813 11.4009H7.11867L9.38399 11.8162L10.3763 14.0679C10.1686 14.6734 10.0554 15.3234 10.0554 15.9998C10.0555 16.7338 10.1885 17.4371 10.4324 18.086Z" fill="#FBBB00"/>
<path d="M25.8253 14.1319C25.9402 14.7368 26.0001 15.3615 26.0001 16C26.0001 16.7159 25.9248 17.4143 25.7814 18.0879C25.2946 20.3802 24.0226 22.3818 22.2605 23.7983L22.26 23.7977L19.4067 23.6521L19.0029 21.1313C20.1721 20.4456 21.0859 19.3725 21.5672 18.0879H16.2199V14.1319H21.6452H25.8253Z" fill="#518EF8"/>
<path d="M22.26 23.7978L22.2605 23.7984C20.5468 25.1758 18.3698 26 16.0001 26C12.1918 26 8.88086 23.8714 7.19183 20.739L10.4325 18.0863C11.277 20.3401 13.4512 21.9445 16.0001 21.9445C17.0957 21.9445 18.1221 21.6484 19.0028 21.1313L22.26 23.7978Z" fill="#28B446"/>
<path d="M22.383 8.30217L19.1434 10.9543C18.2319 10.3846 17.1544 10.0554 16 10.0554C13.3934 10.0554 11.1786 11.7334 10.3764 14.0681L7.11871 11.4011H7.11816C8.78246 8.19229 12.1352 6 16 6C18.4264 6 20.6511 6.86429 22.383 8.30217Z" fill="#F14336"/>
</svg>
