<svg width="375" height="749" viewBox="0 0 375 749" fill="none" xmlns="http://www.w3.org/2000/svg">
<g clip-path="url(#clip0_47_27)">
<path d="M350.665 -35.8473L514.29 5.56281L539.042 -24.4696L589.472 -3.80469L623.627 -123.854L622.261 -124.256C622.904 -128.155 632.106 -156.74 637.33 -172.822C637.731 -174.068 656.658 -168.199 657.019 -169.284C658.466 -173.787 659.912 -178.049 659.912 -178.049L637.008 -184.964L591.642 -199.558H407.202L404.952 -193.889C404.952 -193.889 449.475 -178.813 498.217 -162.65L402.501 -192.241L379.034 -93.7008L347.933 -96.5552L345.642 -79.549L361.072 -69.9L350.665 -35.8473Z" fill="#F1F6FB"/>
<path d="M361.394 156.086C361.394 156.086 285.971 137.392 285.77 138.316C285.529 139.241 266.603 195.285 266.603 195.285C268.652 195.526 338.972 222.463 338.972 222.463L361.394 156.086Z" fill="#F1F6FB"/>
<path d="M95.5842 266.205C92.8518 266.486 91.0435 257.843 82.3238 257.883C65.1658 258.003 36.4752 262.546 22.9738 261.421C2.56087 259.732 -10.8602 252.777 -10.8602 252.777L-40.917 336.361C-40.917 336.361 -25.2055 342.271 -7.32411 340.1C10.1152 337.969 34.2652 338.411 37.8012 339.457C40.5739 334.873 57.1292 307.253 61.8306 299.413C66.9338 290.85 103.661 265.32 95.5842 266.205Z" fill="#F1F6FB"/>
<path d="M37.8414 339.416C37.6003 339.818 37.4396 340.06 37.4396 340.06C38.4442 339.818 38.4843 339.617 37.8414 339.416Z" fill="#F1F6FB"/>
<path d="M209.462 395.38L179.165 370.816L173.82 375.64C165.221 383.399 148.545 396.546 140.549 398.717L129.378 401.773L135.767 411.462C135.968 411.783 140.991 419.382 147.058 426.86C156.301 438.278 162.971 443.303 169.159 443.303C170.204 443.303 171.208 443.142 172.253 442.861C175.95 441.856 181.013 439.162 194.072 419.985C200.341 410.778 205.605 401.974 205.806 401.612L209.462 395.38Z" fill="#F1F6FB"/>
<path d="M82.6453 790.103L115.193 822.346L185.996 750.341L155.858 714.76L82.6453 790.103Z" fill="#F1F6FB"/>
<path d="M185.714 245.54C182.299 245.058 128.293 224.795 128.293 224.795C128.293 224.795 118.77 252.093 143 276.899L185.714 245.54Z" fill="#F1F6FB"/>
<path d="M84.4535 108.203C85.7394 106.917 108.402 69.326 108.402 69.326C108.402 69.326 90.8828 54.29 68.4607 40.54L46.5611 38.128L27.8359 85.971C27.8359 85.93 83.1677 109.49 84.4535 108.203Z" fill="#F1F6FB"/>
<path d="M385.423 335.517L357.175 394.013L336.521 398.074V418.859L421.307 414.879L422.673 408.527C422.713 408.406 425.325 395.943 427.896 383.641C429.383 376.404 430.549 370.615 431.352 366.433C431.834 363.86 432.196 361.971 432.437 360.564C432.598 359.719 432.678 359.076 432.759 358.553C433.442 353.086 430.107 349.95 427.093 348.945C426.49 348.744 398.161 339.617 392.495 337.768L385.423 335.517Z" fill="#F1F6FB"/>
<path d="M36.9574 465.536C34.3455 462.44 30.7291 458.179 26.1482 452.912C18.3929 443.946 10.5171 434.981 10.4367 434.901L5.65496 429.473L-19.2986 445.354L-59.4413 480.974L-39.3499 520.495L-31.9964 517.118C-5.79715 505.057 33.6624 486.965 38.0424 484.995L42.0205 483.789L43.3063 479.366C44.552 475.064 42.141 472.009 40.5739 469.999C39.73 468.913 38.5647 467.466 36.9574 465.536Z" fill="#F1F6FB"/>
<path d="M253.623 1005.76C261.499 1000.77 269.496 995.63 277.572 990.44C415.962 901.548 518.067 828.94 581.033 774.704C673.012 695.462 751.208 582.891 820.202 483.547C864.162 420.226 905.711 360.403 942.197 322.893C1001.83 261.541 1053.54 198.099 1095.94 134.416C1138.01 71.176 1169.79 9.26151 1190.49 -49.6372C1211.06 -108.295 1222.75 -162.972 1229.06 -199.558H1190.29C1179.68 -140.498 1165.09 -92.6554 1154.44 -62.3819C1134.83 -6.45819 1104.46 52.561 1064.15 113.149C1023.09 174.902 972.816 236.454 914.832 296.157C876.177 335.959 833.743 397.029 788.859 461.677C721.151 559.131 644.442 669.611 556.16 745.677C495.404 797.983 392.013 871.475 257.079 958.11C230.438 975.2 205.002 991.28 181.897 1005.76H253.623Z" fill="#F1F6FB"/>
<path d="M24.9025 21.2021C24.8222 20.6795 24.6614 20.1971 24.3802 19.7548C11.4011 -0.829605 -8.56981 -33.8371 -10.4584 -40.4305C-12.1461 -46.3405 -16.6466 -50.3207 -24.2813 -52.5721C-30.5498 -54.4215 -39.0686 -55.2658 -51.9271 -55.2658C-72.782 -55.2658 -108.103 -58.7635 -134.222 -62.02C-148.687 -63.8292 -175.851 -78.6644 -191 -87.5093V-79.1469C-174.967 -69.9402 -149.772 -56.6729 -135.106 -54.8235C-122.327 -53.2154 -78.5683 -47.9888 -51.8869 -47.9888C-29.3041 -47.9888 -19.3388 -45.2148 -17.3698 -38.3801C-14.6776 -29.0126 12.8477 15.0108 17.8705 22.9309C17.9911 25.0215 18.0313 31.0923 14.6559 34.9117C12.5262 37.324 9.43213 38.49 5.13255 38.49C-1.57797 38.49 -7.00266 37.766 -11.3022 37.203C-19.2584 36.158 -25.527 35.3137 -30.2284 41.224C-30.8713 42.028 -34.0859 44.922 -49.3956 49.345C-57.9947 51.838 -66.0313 53.526 -66.1117 53.526C-66.1518 53.526 -66.1518 53.526 -66.192 53.526C-66.2724 53.526 -74.8715 55.335 -96.0077 50.873C-126.587 44.48 -162.591 29.5646 -190.879 16.3375V24.3381C-120.881 56.783 -85.6004 61.125 -71.7373 61.125C-67.3171 61.125 -65.1071 60.682 -64.5847 60.562C-63.9016 60.401 -56.0258 58.753 -47.3864 56.26C-30.59 51.395 -26.2904 47.898 -24.5224 45.686C-22.5534 43.234 -20.4237 43.234 -12.1863 44.319C-7.64558 44.922 -1.97981 45.686 5.21292 45.686C11.6422 45.686 16.7052 43.636 20.2011 39.616C26.3491 32.4593 24.9829 21.6444 24.9025 21.2021Z" fill="white"/>
<path d="M403.505 -199.96C400.09 -188.22 395.067 -170.772 390.084 -153.404C384.981 -135.633 380.963 -121.441 378.07 -111.109C375.619 -102.264 374.212 -97.1985 373.489 -94.2234C360.51 -97.3191 308.835 -112.637 276.045 -122.567C275.001 -122.889 273.876 -122.728 272.992 -122.125C272.107 -121.522 271.505 -120.557 271.424 -119.471C271.344 -118.627 263.267 -36.4905 258.807 -12.931C254.909 7.7338 212.034 68.361 203.154 80.744C200.381 79.578 195.84 77.287 192.746 73.668C191.581 72.301 188.447 68.643 152.925 57.225C135.566 51.637 115.153 45.807 106.514 43.958C90.6819 40.58 24.8624 29.4439 22.0496 29.0017L20.8441 36.1178C21.5272 36.2384 89.3157 47.697 104.987 51.033C112.34 52.601 131.307 57.868 150.353 63.979C182.821 74.432 186.88 78.01 187.201 78.372C193.229 85.448 202.953 88.423 203.395 88.544C203.756 88.664 204.078 88.705 204.44 88.705C205.565 88.705 206.65 88.182 207.373 87.217C209.583 84.202 261.258 12.9201 265.879 -11.6043C269.817 -32.5907 276.407 -96.7964 278.135 -114.406C286.332 -111.953 305.258 -106.244 324.104 -100.696C338.731 -96.3944 350.424 -93.0173 358.902 -90.6452C363.966 -89.2381 367.903 -88.1928 370.636 -87.5093C375.177 -86.3836 377.065 -85.9011 378.713 -87.5093C379.396 -88.1928 379.798 -89.0773 379.838 -90.0422C380.722 -95.1079 397.719 -154.409 410.939 -200H403.505V-199.96Z" fill="white"/>
<path d="M239.961 33.1025C195.358 14.2066 127.69 -14.1774 124.114 -15.0216C124.114 -15.0216 124.235 -14.9814 124.435 -14.9814V-19.0018C125.199 -19.0018 126.244 -19.0018 184.187 5.2813C212.637 17.2219 241.207 29.2831 241.488 29.4037L239.961 33.1025Z" fill="white"/>
<path d="M148.384 60.16C149.751 58.793 171.891 6.2865 171.891 6.2865L148.384 60.16Z" fill="#E3E8EC"/>
<path d="M59.1383 39.656L55.9237 37.284C57.0086 35.7157 67.4964 14.4076 73.8453 1.30109C74.0462 0.858887 74.448 0.497086 74.89 0.336185L176.191 -41.315C176.633 -41.5161 177.155 -41.5161 177.597 -41.3552L262.022 -12.529L260.736 -8.70961L177.035 -37.2946L77.0599 3.79379C73.6443 10.8697 60.4644 37.846 59.1383 39.656Z" fill="white"/>
<path d="M287.899 130.597C287.538 130.597 287.136 130.517 286.734 130.396L198.01 100.565C194.113 99.6 139.705 86.051 120.94 78.01C101.652 69.728 74.2471 45.646 73.0818 44.601L77.8635 39.173C78.1448 39.415 105.55 63.537 123.793 71.336C142.317 79.297 199.296 93.408 199.899 93.569C199.979 93.609 200.1 93.609 200.18 93.65L285.729 122.436L357.175 -69.2567L340.86 -75.4481C339.092 -76.1316 338.128 -78.0614 338.69 -79.9108L344.798 -99.6107L351.71 -97.4799L346.607 -81.0365L363.081 -74.7647C364.93 -74.041 365.894 -71.9906 365.171 -70.101L291.234 128.225C290.752 129.672 289.386 130.597 287.899 130.597Z" fill="white"/>
<path d="M232.344 45.563L229.433 52.188L302.007 84.107L304.917 77.482L232.344 45.563Z" fill="white"/>
<path d="M247.837 114.797L241.207 111.942C248.44 95.017 312.089 -53.738 318.921 -63.3065C319.805 -64.5127 321.291 -65.0755 322.738 -64.7137L354.603 -56.5523L352.835 -49.5568L323.582 -57.0347C314.942 -40.8325 274.478 52.4 247.837 114.797Z" fill="white"/>
<path d="M165.091 87.019L135.603 132.428L141.668 136.37L171.156 90.962L165.091 87.019Z" fill="white"/>
<path d="M107.157 70.676L82.0322 110.054L88.1288 113.948L113.254 74.57L107.157 70.676Z" fill="white"/>
<path d="M-92.11 160.75L-97.2132 155.644C-97.4141 155.845 -97.4945 155.966 -97.4945 155.966C-97.1329 155.443 -95.847 152.95 -94.521 150.337C-89.699 141.01 -80.7784 123.682 -69.8487 107.641C-55.8651 87.096 -43.6495 75.839 -32.4384 73.186C-25.2055 71.457 -10.2575 74.151 13.2897 81.428C31.4523 87.016 54.5976 95.338 82.1631 106.113C126.123 123.28 167.512 141.452 172.816 143.784L279.823 152.267L279.26 159.463L171.65 150.94C171.249 150.9 170.847 150.82 170.485 150.659C170.043 150.458 126.244 131.12 79.5512 112.827C-1.8593 80.985 -24.4822 78.734 -30.7106 80.222C-39.8321 82.393 -51.2842 93.288 -63.8213 111.741C-74.4697 127.421 -83.3099 144.508 -88.0515 153.674C-90.9447 159.222 -91.3867 160.067 -92.11 160.75Z" fill="white"/>
<path d="M336.038 302.589L330.654 297.765C331.136 297.242 379.155 243.651 388.316 220.734C390.446 215.347 393.098 207.668 396.152 198.823C410.738 156.287 422.07 126.175 435.25 126.778C437.661 126.898 445.014 127.22 658.426 190.018C762.62 220.654 866.372 251.651 869.506 252.576L976.393 280.075L974.584 287.071L867.658 259.571C867.618 259.571 867.577 259.531 867.537 259.531C751.449 224.875 447.385 134.738 434.969 134.014C434.125 133.974 429.383 134.818 420.141 155.403C414.033 169.032 408.167 186.078 403.023 201.155C399.929 210.12 397.277 217.88 395.067 223.428C385.423 247.47 338.048 300.338 336.038 302.589Z" fill="white"/>
<path d="M349.54 317.827L346.807 314.892C347.209 314.49 388.115 275.934 401.456 259.933C413.39 245.58 432.156 198.823 435.772 189.616L408.769 173.495C406.158 172.61 379.235 163.765 351.589 155.524C297.784 139.522 289.386 140.206 288.1 140.769C287.297 141.171 284.002 144.709 275.804 172.449C270.581 190.099 264.875 212.412 260.254 230.343C252.016 262.506 250.409 267.934 248.922 269.14L246.431 266.004C246.27 266.125 246.19 266.285 246.19 266.285C247.435 264.356 251.976 246.585 256.396 229.378C261.017 211.327 266.763 188.893 272.027 171.123C280.265 143.302 283.841 138.356 286.453 137.15C288.341 136.306 293.364 134.014 352.754 151.704C381.807 160.348 409.975 169.675 410.256 169.756C410.377 169.796 410.537 169.876 410.658 169.957L439.349 187.043C440.192 187.526 440.554 188.571 440.192 189.496C439.308 191.787 418.212 246.143 404.59 262.506C391.049 278.708 351.228 316.219 349.54 317.827Z" fill="white"/>
<path d="M498.859 119.018C498.578 119.018 498.297 118.978 498.016 118.938C497.453 118.817 440.152 105.389 419.86 103.62C398.884 101.811 314.983 73.829 311.406 72.663L313.697 65.788C314.581 66.07 400.331 94.655 420.503 96.424C438.666 97.992 483.63 108.203 496.368 111.138L525.099 13.0005L426.57 -11.4435L345.401 -31.1434L347.089 -38.1791L428.258 -18.4792L530.483 6.8895C531.448 7.1307 532.251 7.7338 532.734 8.61829C533.216 9.46249 533.336 10.5078 533.055 11.4325L502.315 116.445C501.873 118.013 500.427 119.018 498.859 119.018Z" fill="white"/>
<path d="M359.425 154.237L356.09 152.026L356.049 152.066C357.456 149.533 368.305 113.47 374.815 91.318L378.672 92.443C374.654 106.233 361.273 151.463 359.425 154.237Z" fill="white"/>
<path d="M481.862 364.705L477.884 364.182C477.924 363.981 480.616 343.196 482.425 330.652C482.585 329.526 482.304 325.948 476.076 317.425C471.615 311.274 465.025 303.916 457.109 296.157C440.152 279.512 420.222 264.074 403.827 254.827C369.109 235.208 270.018 199.185 269.013 198.823L270.38 195.044C271.384 195.406 370.797 231.549 405.796 251.33C422.472 260.737 442.684 276.457 459.922 293.302C468.32 301.544 487.769 321.727 486.403 331.255C484.595 343.758 481.862 364.504 481.862 364.705Z" fill="white"/>
<path d="M464.905 488.533C454.337 487.367 422.03 498.584 377.587 514.545C359.063 521.219 341.543 527.49 331.498 530.305C314.259 535.169 292.56 530.908 275.161 527.49C264.151 525.319 255.432 523.631 250.288 524.837C247.797 525.4 242.01 526.767 161.926 601.425C124.636 636.202 88.2307 671.099 84.3329 674.838C80.4352 676.969 46.2396 694.819 18.1116 684.326C3.24394 678.818 -25.8083 661.37 -52.6103 638.775C-83.4305 612.803 -102.437 587.475 -106.214 567.534C-111.197 541.12 -120.801 521.741 -135.588 508.233C-149.29 495.729 -167.493 488.131 -190.96 485.196V492.473C-169.462 495.327 -152.866 502.283 -140.45 513.58C-126.868 525.963 -117.988 544.054 -113.286 568.86C-111.076 580.64 -104.366 593.706 -93.436 607.697C-84.1136 619.598 -71.9382 631.9 -57.2313 644.323C-28.5005 668.526 0.672226 685.572 15.6203 691.12C22.2504 693.573 29.6441 694.819 37.6003 694.819C46.0387 694.819 55.1602 693.412 64.6031 690.638C78.3055 686.618 87.9092 681.15 88.311 680.909C88.5521 680.748 88.7932 680.587 89.0343 680.386C89.396 680.024 127.128 643.841 166.025 607.536C236.264 542.004 249.565 532.757 252.016 531.873C255.713 531.069 264.513 532.797 273.835 534.606C291.074 537.984 314.621 542.607 333.507 537.3C343.794 534.405 361.434 528.093 380.079 521.379C411.462 510.122 454.457 494.684 464.181 495.769C480.255 497.538 580.551 510.524 581.556 510.645L582.48 503.448C581.355 503.328 481.018 490.342 464.905 488.533Z" fill="white"/>
<path d="M45.9006 691.415L4.55099 850.016L11.5496 851.843L52.8991 693.242L45.9006 691.415Z" fill="white"/>
<path d="M52.8698 867.053C21.0048 867.053 -42.886 829.221 -45.6184 827.573L-41.9216 821.341C-41.2787 821.743 24.4605 860.66 53.794 859.776C62.3128 859.535 82.0827 850.248 127.61 807.43C158.39 778.483 191.179 743.466 213.119 719.665C256.155 672.948 466.231 491.91 468.361 490.101L473.062 495.568C470.932 497.377 261.178 678.175 218.423 724.57C129.458 821.06 77.2206 866.329 53.9949 867.013C53.6333 867.053 53.2716 867.053 52.8698 867.053Z" fill="white"/>
<path d="M215.128 958.32C212.356 954.66 146.697 868.943 134.963 850.931C123.551 833.362 34.8678 745.155 33.9436 744.27L39.0468 739.124C42.7035 742.783 129.177 828.739 141.031 846.951C152.563 864.721 220.191 953.01 220.874 953.89L215.128 958.32Z" fill="white"/>
<path d="M-45.2969 1006.16C-44.9755 1006 -44.654 1005.88 -44.3325 1005.72C-35.653 1001.74 -28.7416 998.28 -23.7187 995.46C-14.8383 990.44 -12.9899 987.91 -12.347 985.94C-11.8648 984.49 -10.6593 980.27 -8.89123 973.87C-0.251911 943.16 22.7729 861.625 35.9127 844.82C51.8653 824.396 160.319 717.333 161.404 716.248L156.341 711.102C151.88 715.524 46.4406 819.612 30.2067 840.358C17.7902 856.238 -0.935028 918.996 -15.8429 971.9C-17.4904 977.77 -18.6959 982.08 -19.178 983.48C-19.7004 984.29 -23.4374 988.23 -48.4312 999.61C-53.2933 1001.82 -58.3564 1004.03 -63.2587 1006.16H-45.2969Z" fill="white"/>
<path d="M80.335 682.087L74.4474 686.291L119.661 749.681L125.549 745.477L80.335 682.087Z" fill="white"/>
<path d="M198.613 931.902L193.148 927.158C194.555 925.509 228.268 886.592 247.837 878.189C265.397 870.671 292.842 854.187 295.936 852.338C305.58 842.81 488.412 602.873 558.41 510.765C558.893 510.162 559.536 509.68 560.299 509.479L746.587 456.048L748.596 463.003L563.433 516.113C556.16 525.681 495.725 605.164 435.29 684.286C305.218 854.469 301.642 857.163 300.276 858.168C300.195 858.248 300.075 858.288 299.994 858.369C298.749 859.133 269.697 876.702 250.69 884.863C232.648 892.582 198.975 931.5 198.613 931.902Z" fill="white"/>
<path d="M280.613 663.535L273.385 663.81L280.902 861.315L288.13 861.039L280.613 663.535Z" fill="white"/>
<path d="M232.657 107.856L213.468 146.398L219.942 149.625L239.131 111.083L232.657 107.856Z" fill="white"/>
<path d="M188.768 242.284L184.911 241.198C185.835 238.022 199.738 198.381 200.341 196.692C200.582 196.009 201.185 195.486 201.908 195.366C214.887 193.195 229.273 190.38 232.769 189.054V171.565L172.775 164.971C170.164 165.132 135.486 167.384 125.641 181.736C114.912 197.416 103.621 214.141 103.5 214.342L100.165 212.09C100.286 211.93 111.617 195.165 122.346 179.485C133.637 163.001 171.168 161.031 172.735 160.951C172.856 160.951 172.936 160.951 173.057 160.951L235.019 167.745C236.023 167.866 236.827 168.71 236.827 169.756V190.139C236.827 192.109 234.818 192.833 230.237 193.999C227.505 194.682 223.687 195.486 218.946 196.411C212.677 197.617 206.328 198.743 203.797 199.185C198.613 213.658 189.451 239.912 188.768 242.284Z" fill="white"/>
<path d="M158.43 230.624L154.613 229.338C155.216 227.529 158.028 211.005 159.796 200.311L133.878 174.339L136.731 171.484L163.413 198.18C163.855 198.622 164.096 199.306 163.976 199.909C163.493 202.803 159.395 227.81 158.43 230.624Z" fill="white"/>
<path d="M202.073 195.354L161.835 197.613L162.06 201.626L202.299 199.368L202.073 195.354Z" fill="white"/>
<path d="M217.78 252.455L213.802 251.852L221.035 204.773C221.115 204.21 221.437 203.688 221.919 203.406C222.401 203.085 223.004 203.004 223.526 203.165C224.973 203.567 259.249 212.975 262.865 214.101L261.66 217.92C258.646 216.955 232.407 209.759 224.611 207.628L217.78 252.455Z" fill="white"/>
<path d="M215.886 194.616L212.972 197.384L221.576 206.453L224.49 203.685L215.886 194.616Z" fill="white"/>
<path d="M268.21 194.36C266.562 194.039 246.752 192.793 234.657 192.109L234.898 188.089C249.887 188.933 268.049 190.059 269.375 190.501L268.089 194.32C268.129 194.36 268.17 194.36 268.21 194.36Z" fill="white"/>
<path d="M275.332 169.092L235.073 172.258L235.388 176.266L275.646 173.1L275.332 169.092Z" fill="white"/>
<path d="M60.4643 199.667L53.6332 197.336C64.6433 165.253 81.2388 116.284 81.9621 112.827C81.9621 112.867 81.922 113.068 81.922 113.35H89.1549C89.1549 114.314 89.1549 115.239 74.7292 157.855C67.6972 178.641 60.5447 199.466 60.4643 199.667Z" fill="white"/>
<path d="M-3.56733 82.13L-35.2744 172.238L-31.484 173.573L0.223122 83.465L-3.56733 82.13Z" fill="white"/>
<path d="M583.726 406.195C581.074 401.974 575.327 396.627 563.072 395.018C549.369 393.249 531.97 385.289 516.62 378.294C509.146 374.876 502.074 371.66 496.006 369.408C491.225 367.639 480.415 363.659 466.793 358.634C429.825 345.005 367.903 322.169 360.47 319.194C354.362 316.741 347.571 311.555 341.544 306.932C338.048 304.278 335.074 301.986 332.462 300.418C325.109 295.996 280.747 276.296 272.75 273.602C270.54 272.879 261.218 269.1 249.364 264.315C217.66 251.53 164.538 230.142 141.031 223.267C128.615 219.649 103.42 212.05 74.2873 203.205C26.0678 188.611 -33.9654 170.479 -74.6706 158.74C-114.05 147.402 -160.582 120.144 -191 100.565V109.208C-186.66 111.983 -181.999 114.877 -177.177 117.852C-128.475 147.523 -95.6461 160.267 -76.6798 165.735C-36.0147 177.515 23.9783 195.647 72.1978 210.201C101.371 219.005 126.565 226.644 139.022 230.263C162.207 237.017 215.088 258.325 246.672 271.07C259.57 276.256 268.089 279.673 270.46 280.477C278.818 283.292 322.416 302.831 328.765 306.65C330.975 307.977 333.989 310.268 337.164 312.721C343.512 317.586 350.745 323.134 357.777 325.948C365.332 328.963 424.883 350.915 464.302 365.468C477.964 370.494 488.733 374.474 493.515 376.243C499.301 378.374 506.253 381.55 513.647 384.927C529.479 392.164 547.4 400.325 562.147 402.255C569.461 403.18 574.725 405.793 577.417 409.773C578.1 410.778 578.542 411.783 578.823 412.668C569.3 414.236 542.538 418.457 526.344 418.819C519.112 418.98 506.494 417.894 491.868 416.648C466.151 414.437 434.165 411.703 414.234 414.316C385.704 418.095 304.897 416.326 295.614 416.125C289.627 412.909 252.78 393.611 225.053 391.681C214.124 390.918 200.18 381.349 184.75 364.021C172.775 350.553 164.176 337.125 164.096 337.004C164.016 336.883 163.935 336.803 163.895 336.682C163.734 336.481 148.384 317.224 131.588 297.845C96.87 257.842 89.838 256.435 87.186 255.913C81.1585 254.707 71.153 255.43 59.5803 256.234C44.0697 257.36 24.782 258.727 12.1244 255.269C5.85585 253.541 -6.07846 249.601 -19.8612 245.017C-37.0193 239.308 -58.3564 232.233 -75.8761 227.167C-103.602 219.166 -110.433 219.367 -113.728 220.815C-115.496 221.579 -123.453 223.026 -158.693 219.609C-171.471 218.362 -183.847 216.834 -190.96 215.95V223.227C-183.647 224.152 -171.752 225.599 -159.416 226.805C-122.689 230.383 -114.09 228.896 -110.835 227.448C-109.831 227.046 -104.486 226.403 -77.5638 234.203C-60.245 239.228 -39.1088 246.224 -22.1114 251.892C-8.20816 256.516 3.80652 260.496 10.2358 262.265C24.0587 266.044 43.2259 264.677 60.1027 263.471C70.711 262.707 80.7165 261.983 85.7796 263.029C87.4672 263.35 95.4235 267.25 126.123 302.589C142.076 320.963 156.702 339.255 158.149 341.065C160.68 345.045 194.514 396.828 224.611 398.918C252.619 400.888 292.601 422.719 293.003 422.92C293.525 423.201 294.088 423.362 294.65 423.362C298.307 423.443 384.579 425.573 415.279 421.513C434.446 418.98 465.99 421.674 491.345 423.845C505.168 425.051 517.223 426.056 524.938 426.056C525.501 426.056 526.063 426.056 526.586 426.056C546.958 425.614 582.159 419.462 583.645 419.221C585.293 418.94 586.538 417.533 586.619 415.844C586.579 415.321 586.699 410.939 583.726 406.195Z" fill="white"/>
<path d="M339.012 420.467L331.779 420.065L333.185 395.38C333.266 393.852 334.27 392.566 335.717 392.124L352.353 387.018L381.365 332.461L387.754 335.878L358.059 391.762C357.617 392.606 356.853 393.249 355.929 393.531L340.258 398.355L339.012 420.467Z" fill="white"/>
<path d="M252.378 404.466L246.069 400.928L258.285 379.218C258.887 378.173 259.932 377.489 261.138 377.369L288.984 375.077L346.365 316.661L351.509 321.727L293.204 381.108C292.601 381.711 291.797 382.113 290.913 382.193L263.669 384.445L252.378 404.466Z" fill="white"/>
<path d="M334.129 332.778L330.7 339.149L368.872 359.716L372.301 353.345L334.129 332.778Z" fill="white"/>
<path d="M314.615 357.912L310.596 363.929L351.76 391.449L355.778 385.431L314.615 357.912Z" fill="white"/>
<path d="M191.943 373.951L188.487 367.599C188.728 367.479 212.356 354.613 222.442 349.266C229.554 345.447 268.13 308.298 292.32 284.216L297.423 289.362C291.194 295.554 236.184 350.111 225.817 355.659C215.811 361.006 192.184 373.831 191.943 373.951Z" fill="white"/>
<path d="M321.814 343.477L261.459 321.083C261.298 321.043 261.178 320.963 261.017 320.842L212.918 287.835L162.529 340.261L159.636 337.486L211.19 283.814C211.873 283.091 212.958 283.01 213.762 283.533L263.066 317.344L323.22 339.657L321.814 343.477Z" fill="white"/>
<path d="M128.775 298.167L124.154 292.619C128.253 289.202 188.246 244.816 190.777 242.927L195.077 248.756C173.539 264.677 131.95 295.554 128.775 298.167Z" fill="white"/>
<path d="M177.236 322.33C172.856 318.912 135.888 272.115 131.668 266.768C131.468 266.527 127.168 260.978 124.556 253.098C121.02 242.444 122.306 232.675 128.253 224.915L131.427 227.368C126.244 234.122 125.199 242.284 128.333 251.731C130.704 258.968 134.803 264.275 134.843 264.315C151.237 285.061 176.713 316.822 179.727 319.194L177.236 322.33Z" fill="white"/>
<path d="M95.213 215.6L82.9847 258.393L89.9392 260.382L102.167 217.59L95.213 215.6Z" fill="white"/>
<path d="M-117.345 536.295L-120.801 529.943C-107.701 522.827 -101.031 519.49 -97.5347 517.962C-99.2223 514.183 -103.12 507.027 -106.616 500.996C-107.42 499.629 -107.219 497.86 -106.134 496.694L-88.7346 477.999L-102.075 445.515C-102.799 443.746 -102.035 441.735 -100.347 440.891C-99.6242 440.529 -82.9885 432.207 -77.2423 429.594C-75.5144 426.659 -68.7637 411.221 -42.3636 336.321C-27.3352 293.704 -12.9497 251.611 -11.9854 248.837L3.76633 185.918L10.7582 187.687L-4.99352 250.726C-5.03371 250.807 -5.03371 250.927 -5.0739 251.008C-5.23463 251.45 -20.705 296.72 -36.5371 341.628C-45.8595 368.001 -53.4541 389.149 -59.2002 404.386C-70.4916 434.539 -71.6569 435.021 -73.5455 435.866C-77.0012 437.353 -88.5739 443.062 -94.0789 445.836L-81.0999 477.356C-80.5775 478.683 -80.8186 480.17 -81.783 481.216L-98.9411 499.629C-97.8561 501.559 -96.2488 504.413 -94.7219 507.308C-88.9355 518.163 -88.815 519.932 -89.9401 521.902C-90.5428 522.947 -91.5876 523.631 -92.7529 523.792C-95.1237 524.515 -106.978 530.667 -117.345 536.295Z" fill="white"/>
<path d="M-33.0814 522.264L-35.4521 515.429C-35.2512 515.349 -16.8475 508.916 3.04303 500.071C35.7519 485.558 47.1236 476.029 50.941 470.602C59.0178 459.023 71.9165 444.308 84.5741 432.207C95.9056 421.352 112.742 407.039 128.534 400.727C154.492 390.355 177.718 362.775 177.919 362.493L183.464 367.117C182.46 368.323 158.872 396.345 131.186 407.441C116.479 413.351 100.406 427.021 89.5165 437.433C74.7694 451.545 62.9557 465.978 56.8077 474.743C50.499 483.748 33.3811 494.483 5.89602 506.705C-14.2356 515.67 -32.9206 522.224 -33.0814 522.264Z" fill="white"/>
<path d="M39.9711 339.658C26.6706 335.838 16.9865 336.924 5.73531 338.17C-1.33688 338.974 -9.29309 339.859 -19.2986 339.577C-32.5992 339.215 -42.8458 333.828 -53.7353 328.159C-63.2989 323.134 -73.1838 317.947 -85.5602 316.178C-103.04 313.646 -157.889 307.454 -191 303.796V307.856C-157.849 311.555 -103.482 317.666 -86.1227 320.199C-74.4697 321.887 -64.866 326.913 -55.6239 331.778C-44.8147 337.446 -33.6439 343.276 -19.4192 343.678C-9.17255 343.959 -1.01541 343.035 6.17732 342.231C17.4687 340.984 26.3491 339.979 38.8862 343.598C47.204 346.01 61.9913 358.594 81.6407 380.103C96.6289 396.506 109.206 412.346 109.327 412.507L112.461 410.014C110.371 407.321 61.5895 345.889 39.9711 339.658Z" fill="white"/>
<path d="M42.9447 341.989L37.0378 337.808C37.1583 337.607 50.7401 318.349 54.9192 307.374C59.5402 295.232 92.3696 269.622 96.1066 266.768L100.527 272.517C86.5431 283.332 64.6434 302.228 61.6699 309.987C57.1694 321.767 43.5072 341.145 42.9447 341.989Z" fill="white"/>
<path d="M39.5693 406.879L34.0642 397.31L-1.69852 394.094C-2.14053 394.053 -2.58254 393.933 -2.98437 393.732L-48.1097 371.338L-44.8951 364.865L-0.412666 386.978L36.5556 390.314C37.7209 390.435 38.7656 391.078 39.3684 392.124L45.7976 403.341L39.5693 406.879Z" fill="white"/>
<path d="M-56.1061 482.18L-59.9235 476.029C-57.7938 474.622 -33.242 454.4 -18.2538 442.017C-18.1333 441.936 -18.0529 441.856 -17.9324 441.776L152.885 330.571L156.823 336.642L-13.8337 447.726C-20.7854 453.515 -53.3335 480.452 -56.1061 482.18Z" fill="white"/>
<path d="M71.2333 366.755L67.0945 360.805L108.001 332.3L113.787 325.586L87.0253 305.283C86.1814 304.64 85.659 303.635 85.5787 302.589C85.5385 301.504 85.9403 300.499 86.7038 299.775L107.036 280.759L111.979 286.066L94.7806 302.147L121.221 322.209C122.025 322.812 122.547 323.737 122.627 324.702C122.748 325.707 122.426 326.672 121.783 327.436L113.184 337.406C112.983 337.647 112.742 337.848 112.501 338.009L71.2333 366.755Z" fill="white"/>
<path d="M-6.63005 342.049L-14.3254 381.876L-7.22412 383.25L0.471216 343.422L-6.63005 342.049Z" fill="white"/>
<path d="M65.2863 455.686C62.9959 453.837 36.7565 422.679 31.5327 416.487L34.5866 413.914C46.4807 428.066 66.0498 451.103 67.7776 452.59L65.2863 455.686Z" fill="white"/>
<path d="M13.8632 428.422L8.00964 432.673L42.8247 480.665L48.6783 476.414L13.8632 428.422Z" fill="white"/>
<path d="M-13.9141 569.905L-19.9415 565.885L6.61935 525.802L2.40015 506.021L9.47233 504.534L14.013 525.802C14.2139 526.767 14.013 527.732 13.4906 528.576L-13.9141 569.905Z" fill="white"/>
<path d="M47.555 475.409L43.9711 481.694L90.7759 508.409L94.3598 502.123L47.555 475.409Z" fill="white"/>
<path d="M36.5155 693.412L29.6442 691.12L62.6343 592.018C75.533 548.075 94.8208 481.658 95.9459 476.431C95.9861 474.461 97.071 472.612 119.493 454.239C131.508 444.349 143.964 434.499 147.581 431.765C149.027 430.639 151.077 430.8 152.363 432.086C156.943 436.71 171.65 449.133 179.205 445.595C181.093 444.71 186.92 440.208 200.622 417.452C208.337 404.627 214.767 392.325 214.807 392.164L221.236 395.501C221.156 395.621 214.646 408.165 206.81 421.191C190.496 448.289 184.308 451.183 182.259 452.148C170.967 457.455 155.537 444.911 149.55 439.363C137.294 448.932 106.876 473.577 103.018 478.039C102.335 481.095 99.3213 492.03 86.3422 536.737C78.0645 565.202 69.7065 593.787 69.6261 594.068C69.6261 594.108 69.5859 594.148 69.5859 594.189L36.5155 693.412ZM103.179 476.994C103.179 477.115 103.139 477.235 103.098 477.477C103.139 477.356 103.139 477.195 103.179 476.994Z" fill="white"/>
<path d="M-15.4799 584.374L-18.3369 591.022L54.3137 622.275L57.1707 615.627L-15.4799 584.374Z" fill="white"/>
<path d="M146.858 436.79C137.776 424.448 127.369 410.778 125.721 409.291C125.721 409.291 125.962 409.492 126.404 409.693L129.338 403.059C130.463 403.542 131.267 403.903 142.357 418.578C147.581 425.493 152.684 432.408 152.724 432.448L146.858 436.79Z" fill="white"/>
<path d="M217.057 554.548C216.535 553.945 163.815 495.166 155.577 487.568C148.947 481.457 118.167 473.697 110.532 472.17L111.939 465.054C112.341 465.134 150.916 473.416 160.48 482.221C168.998 490.06 220.272 547.271 222.442 549.723L217.057 554.548Z" fill="white"/>
<path d="M244.397 439.97L239.189 444.992L319.225 528.069L324.432 523.047L244.397 439.97Z" fill="white"/>
<path d="M244.261 528.938L242.653 503.81L210.869 471.486L216.012 466.421L248.721 499.709C249.324 500.312 249.685 501.157 249.766 502.001L251.453 528.495L244.261 528.938Z" fill="white"/>
<path d="M217.82 464.169C189.331 446.077 188.366 444.55 187.844 443.745L193.992 439.926C193.791 439.645 193.63 439.484 193.63 439.444C195.197 440.931 209.141 450.098 221.678 458.058L217.82 464.169Z" fill="white"/>
<path d="M156.341 483.387L149.952 480.05C152.523 475.105 165.502 450.339 166.869 448.248L172.896 452.269L169.882 450.259L172.896 452.269C171.892 453.797 162.207 472.17 156.341 483.387Z" fill="white"/>
<path d="M329.805 373.822L291.648 415.562L296.985 420.446L335.143 378.706L329.805 373.822Z" fill="white"/>
<path d="M159.917 605.954L156.725 608.396L232.009 706.881L235.2 704.438L159.917 605.954Z" fill="white"/>
<path d="M467.356 635.478L364.247 582.489C363.443 582.087 362.8 581.364 362.519 580.519L344.196 530.184L350.987 527.691L368.828 576.7L470.651 629.045L467.356 635.478Z" fill="white"/>
<path d="M445.296 804.777C425.124 780.775 391.893 741.697 388.678 739.044C387.633 738.199 385.383 736.43 349.701 681.23C332.221 654.173 315.063 627.236 314.862 626.955C314.46 626.352 314.259 625.588 314.299 624.864C314.38 622.854 322.216 423.603 322.296 420.95L324.988 421.03H329.529C329.529 422.076 323.019 587.635 321.573 624.02C348.375 666.114 389.12 729.234 393.299 733.455C398.322 737.677 442.081 789.66 450.841 800.113L445.296 804.777ZM393.178 733.415L393.219 733.455C393.219 733.455 393.219 733.415 393.178 733.415Z" fill="white"/>
<path d="M110.682 654.753L105.402 659.699L189.444 749.507L194.725 744.56L110.682 654.753Z" fill="white"/>
<path d="M24.34 780.293C17.6294 778.966 -5.67664 764.211 -13.3114 759.347C-28.4603 749.738 -42.5645 740.29 -42.7253 740.169L-40.475 736.832C-24.9242 747.285 17.1071 774.704 25.1436 776.313L24.34 780.293Z" fill="white"/>
<path d="M30.2469 89.951C30.2871 89.87 30.2871 89.79 30.2871 89.75L23.2149 88.222C23.6569 86.172 35.8725 59.195 46.079 36.962L52.669 39.977C44.4315 57.989 31.0506 87.458 30.2469 89.951Z" fill="white"/>
<path d="M309.036 292.579L305.459 290.769C305.781 290.166 335.838 229.7 339.374 222.342L342.99 224.071C339.414 231.469 309.357 291.935 309.036 292.579Z" fill="white"/>
<path d="M342.387 224.714L338.57 223.428C346.888 198.461 359.385 160.509 359.867 158.217V158.257L363.845 158.82C363.483 161.273 345.923 214.141 342.387 224.714Z" fill="white"/>
<path d="M254.668 780.092C253.664 780.092 252.619 779.649 251.936 778.845L209.101 728.751L214.606 724.048L255.231 771.568L276.809 755.407L281.149 761.196L256.838 779.368C256.195 779.891 255.432 780.092 254.668 780.092Z" fill="white"/>
<path d="M372.674 708.307L278.802 730.047L280.433 737.097L374.305 715.357L372.674 708.307Z" fill="white"/>
<path d="M258.686 676.486L220.593 638.453C219.83 637.689 219.789 636.443 220.553 635.639L239.037 616.14C232.768 609.185 204.721 578.107 200.783 574.127L203.636 571.273C208.136 575.775 241.85 613.205 243.256 614.813C243.939 615.577 243.939 616.783 243.216 617.547L224.772 636.966L261.499 673.632L258.686 676.486Z" fill="white"/>
<path d="M234.521 647.136L204.841 667.808L207.136 671.108L236.817 650.436L234.521 647.136Z" fill="white"/>
<path d="M370.636 522.384L363.845 519.892L386.629 458.179L383.093 422.799L390.285 422.076L393.902 458.299C393.942 458.862 393.902 459.385 393.701 459.908L370.636 522.384Z" fill="white"/>
<path d="M419.686 606.509L357.691 688.188L360.891 690.619L422.887 608.94L419.686 606.509Z" fill="white"/>
<path d="M125.561 551.894C125.32 551.894 125.078 551.854 124.837 551.814L81.1184 542.728L82.6052 535.652L124.556 544.376L175.629 500.554L238.957 440.208L261.097 401.933L267.366 405.552L244.984 444.268C244.823 444.55 244.582 444.831 244.341 445.072L180.571 505.861C180.531 505.901 180.491 505.941 180.45 505.981L127.891 551.05C127.248 551.613 126.404 551.894 125.561 551.894Z" fill="white"/>
<path d="M413.109 94.574L409.131 94.132C409.292 92.645 410.538 75.558 411.261 65.386L345.803 50.832C345.281 50.712 344.798 50.39 344.517 49.908C344.236 49.425 344.155 48.862 344.276 48.34L351.187 21.8454L327.479 16.8601L328.323 12.9201L354.081 18.3476C354.603 18.4682 355.085 18.7898 355.366 19.2723C355.648 19.7547 355.728 20.3176 355.608 20.8403L348.656 47.335L413.752 61.808C414.717 62.009 415.4 62.934 415.319 63.899C415.319 65.105 413.35 92.524 413.109 94.574Z" fill="white"/>
<path d="M299.994 1006.16C334.029 983.08 382.409 950.56 419.458 925.751C419.538 925.71 419.619 925.63 419.659 925.59L598.714 785.238C598.794 785.157 598.915 785.077 598.995 784.997L719.062 668.847C719.263 668.646 719.423 668.445 719.544 668.244L829.444 502.282L823.416 498.302L713.757 663.943L594.133 779.69L415.319 919.841C412.948 921.449 374.252 947.34 335.717 973.27C314.46 987.58 298.749 998.24 287.096 1006.16H299.994Z" fill="white"/>
<path d="M427.374 1006.16L86.744 616.864L74.6489 627.437L405.997 1006.16H427.374Z" fill="white"/>
<path d="M149.148 1006.16C193.63 980.91 258.043 944.12 284.403 929.047L284.765 928.846L489.095 783.027L489.336 782.826L489.577 782.625C495.404 777.72 632.427 662.294 656.698 628.845C680.365 596.199 735.376 521.661 735.938 520.897L736.099 520.656C779.858 456.933 866.291 332.582 880.436 317.907C897.875 299.775 1037.99 138.96 1062.14 104.103C1085.61 70.211 1121.73 5.08038 1134.95 -31.264C1145.48 -60.2912 1170.88 -162.892 1179.92 -199.96H1163.36C1153.68 -160.399 1129.65 -63.7488 1119.85 -36.7719C1107.27 -2.11612 1071.38 62.532 1048.88 94.976C1025.01 129.431 886.142 288.8 868.823 306.771C850.339 325.948 729.107 502.403 722.919 511.449C720.468 514.786 666.984 587.274 643.678 619.397C621.015 650.635 486.121 764.533 479.491 770.121L276.086 915.257C223.687 945.17 151.278 986.46 116.56 1006.12H149.148V1006.16Z" fill="white"/>
<path d="M212.074 -199.959C209.663 -194.572 206.971 -188.541 203.998 -181.747C193.831 -158.549 184.067 -135.673 180.691 -127.712L14.5755 -54.9835L-36.6576 -0.0246887L-97.0926 36.4804L-166.81 116.728L-191 132.005V151.021L-156.242 129.07L-86.6451 48.944L-26.4512 12.5591L24.0587 -41.5554L192.987 -115.531L194.233 -118.465C206.288 -146.89 219.468 -177.244 229.674 -199.959H212.074Z" fill="white"/>
</g>
<path d="M49 479.5L78.255 496.365C84.9964 500.251 93.5969 496.792 95.7705 489.32L98.4815 480.001C99.1455 477.719 100.473 475.685 102.294 474.157L140.543 442.09C145.324 438.082 146.236 431.079 142.642 425.98L134.305 414.153C130.529 408.797 131.749 401.403 137.044 397.543L173.733 370.797C178.04 367.658 183.902 367.735 188.124 370.988L215.75 392.267C217.23 393.407 218.954 394.185 220.787 394.541L242.933 398.838C248.04 399.829 253.205 397.415 255.721 392.862L258.904 387.102C260.839 383.601 264.391 381.294 268.377 380.95L286.56 379.383C289.424 379.136 292.105 377.869 294.114 375.812L312 357.5" stroke="#FFD337" stroke-width="5" stroke-linecap="round"/>
<circle cx="49" cy="480" r="8" fill="#FFD337"/>
<circle cx="49" cy="480" r="4" fill="white"/>
<circle opacity="0.15" cx="312" cy="357" r="24" fill="#051F32"/>
<circle cx="312" cy="357" r="8" fill="#051F32"/>
<circle cx="312" cy="357" r="4" fill="white"/>
<defs>
<clipPath id="clip0_47_27">
<rect width="375" height="812" fill="white" transform="translate(0 -63)"/>
</clipPath>
</defs>
</svg>
