<svg width="404" height="547" viewBox="0 0 404 547" fill="none" xmlns="http://www.w3.org/2000/svg">
<path d="M202 280.88V294.884C202 372.2 292.38 434.882 403.877 434.882L403.877 140.882C403.877 63.5702 313.497 0.878906 202 0.878906C90.5015 0.878906 0.12213 63.5702 0.12213 140.882C0.12213 218.199 90.5015 280.88 202 280.88Z" fill="url(#paint0_linear_2890_65)"/>
<path d="M0.121413 546.879C111.619 546.879 201.999 484.197 201.999 406.881V294.884V280.88L201.999 140.882C201.999 89.078 242.614 43.8731 302.938 19.6587C273.233 7.7418 238.742 0.878906 201.999 0.878906C90.5007 0.878906 0.121413 63.5702 0.121413 140.882L0.121413 546.879Z" fill="white"/>
<defs>
<linearGradient id="paint0_linear_2890_65" x1="403.877" y1="217.885" x2="0.122131" y2="217.885" gradientUnits="userSpaceOnUse">
<stop stop-color="white"/>
<stop offset="0.660991" stop-color="#B7B7B7"/>
<stop offset="1" stop-color="white"/>
</linearGradient>
</defs>
</svg>
